<svg height="858pt" viewBox="-27 -44 858.08488 858" width="858pt" xmlns="http://www.w3.org/2000/svg"><path d="m623.257812 768.289062c-9.347656 0-18.605468-2.925781-26.320312-8.539062l-184.191406-133.808594c-6.277344-4.554687-14.738282-4.566406-21.023438 0l-184.167968 133.808594c-19.925782 14.503906-47.960938 10.070312-62.441407-9.878906-8.398437-11.546875-10.769531-26.542969-6.347656-40.117188l70.335937-216.488281c2.40625-7.398437-.203124-15.441406-6.492187-19.992187l-184.160156-133.804688c-9.65625-7.007812-16.011719-17.351562-17.886719-29.152344-1.871094-11.78125.957031-23.609375 7.96875-33.273437 8.378906-11.546875 21.90625-18.453125 36.199219-18.453125h227.625c7.777343 0 14.613281-4.960938 17.007812-12.359375l70.347657-216.488281c7.613281-23.453126 32.890624-36.308594 56.320312-28.722657 13.570312 4.402344 24.304688 15.132813 28.730469 28.710938v.011719l70.332031 216.488281c2.398438 7.386719 9.25 12.363281 17.027344 12.363281h227.652344c11.914062 0 23.136718 4.644531 31.570312 13.082031 8.460938 8.445313 13.109375 19.671875 13.109375 31.609375.011719 14.273438-6.875 27.8125-18.453125 36.195313l-184.136719 133.777343c-6.285156 4.566407-8.90625 12.597657-6.496093 19.980469l70.371093 216.515625c3.695313 11.347656 2.738281 23.464844-2.671875 34.105469-5.421875 10.648437-14.648437 18.546875-26.003906 22.238281-4.503906 1.46875-9.167969 2.191406-13.804688 2.191406zm-578.523437-482.875c-5.722656 0-11.144531 2.746094-14.488281 7.371094-2.808594 3.875-3.945313 8.601563-3.199219 13.332032.757813 4.710937 3.292969 8.851562 7.160156 11.652343l184.160157 133.804688c15.734374 11.402343 22.261718 31.507812 16.238281 49.980469l-70.339844 216.484374c-1.773437 5.449219-.824219 11.445313 2.542969 16.066407 5.800781 7.972656 17.007812 9.753906 24.980468 3.957031l184.167969-133.804688c15.722657-11.457031 36.859375-11.433593 52.554688 0l184.191406 133.804688c4.628906 3.339844 10.609375 4.28125 16.054687 2.527344 4.546876-1.476563 8.238282-4.632813 10.398438-8.894532 2.175781-4.253906 2.558594-9.097656 1.074219-13.640624l-70.371094-216.511719c-6.011719-18.476563.527344-38.566407 16.238281-49.96875l184.152344-133.792969c4.636719-3.363281 7.402344-8.773438 7.386719-14.480469 0-4.796875-1.859375-9.285156-5.242188-12.652343-3.375-3.378907-7.867187-5.234376-12.632812-5.234376-.011719 0-.011719 0-.011719 0h-227.628906c-19.429688 0-36.523438-12.421874-42.53125-30.910156l-70.332032-216.472656v.003906c-1.773437-5.4375-6.066406-9.742187-11.5-11.503906-9.375-3.050781-19.5 2.105469-22.535156 11.492188l-70.347656 216.480468c-5.996094 18.488282-23.078125 30.910156-42.519531 30.910156zm0 0"/></svg>